<mxfile host="app.diagrams.net" modified="2023-12-13T19:05:56.259Z" agent="Mozilla/5.0 (Macintosh; Intel Mac OS X 10_15_3) AppleWebKit/537.36 (KHTML, like Gecko) Chrome/104.0.0.0 Safari/537.36" version="22.1.8" etag="8d7VwlW0kcvg9THPz8vZ" type="github">
  <diagram name="Page-1" id="rnSvnzpPY45p8sVEIhFr">
    <mxGraphModel>
      <root>
        <mxCell id="0" />
        <mxCell id="1" parent="0" />
      </root>
    </mxGraphModel>
  </diagram>
</mxfile>
